<svg height="512" viewBox="0 0 64 64" width="512" xmlns="http://www.w3.org/2000/svg">
    <g id="Administrator-Worker-Setting-Computer-Laptop">
        <path
            d="m34 16v-3a11 11 0 0 0 -22 0v3a3 3 0 0 0 0 6v1a11.014 11.014 0 0 0 6 9.79v3.47l-8.28 2.59a10.964 10.964 0 0 0 -7.72 10.5v11.65a1 1 0 0 0 1 1h27v-2h-19v-11h-2v11h-5v-10.65a8.959 8.959 0 0 1 6.32-8.59l5.28-1.65-.59 4.77a.983.983 0 0 0 .39.92 1.029 1.029 0 0 0 .6.2 1.046 1.046 0 0 0 .39-.08l6.61-2.83 6.61 2.83a1.046 1.046 0 0 0 .39.08 1.029 1.029 0 0 0 .6-.2.983.983 0 0 0 .39-.92l-.59-4.77 2.3.72.6-1.91-5.3-1.66v-3.47a11.014 11.014 0 0 0 6-9.79v-1a3 3 0 0 0 0-6zm-22 4a1 1 0 0 1 0-2zm5.21 22.39.49-3.94 1.02-.32 2.53 2.53zm2.79-5.8v-3.02a10.68 10.68 0 0 0 6 0v3.02l-3 3zm8.3 1.86.49 3.94-4.04-1.73 2.53-2.53zm3.7-15.45a9 9 0 0 1 -18 0v-4.58c.99-.94 4.42-4.06 7.42-5.19a7.706 7.706 0 0 0 3.13 3.66 1 1 0 0 0 1.34-.44 3.144 3.144 0 0 1 1.52-1.36 8.058 8.058 0 0 0 4.59 3.64zm0-6.39a5.591 5.591 0 0 1 -3.05-2.93 1.014 1.014 0 0 0 -.95-.68 4.268 4.268 0 0 0 -3.25 1.61 8.027 8.027 0 0 1 -1.8-2.93 1.014 1.014 0 0 0 -1.19-.65c-2.77.69-5.88 3.08-7.76 4.7v-2.73a9 9 0 0 1 18 0zm2 3.39v-2a1 1 0 0 1 0 2z" fill="#174579"/>
        <path d="m17 19h2v2h-2z" fill="#174579"/>
        <path d="m27 19h2v2h-2z" fill="#174579"/>
        <path d="m27 25h-2a2 2 0 0 1 -4 0h-2a4 4 0 0 0 8 0z" />
        <path
            d="m61.937 56.649-2.937-7.831v-12.818a3 3 0 0 0 -3-3v2a1 1 0 0 1 1 1v12h-20v-12a1 1 0 0 1 1-1v-2a3 3 0 0 0 -3 3v12.818l-2.937 7.831a1 1 0 0 0 -.063.351v3a2 2 0 0 0 2 2h26a2 2 0 0 0 2-2v-3a1 1 0 0 0 -.063-.351zm-4.63-6.649 2.25 6h-6.837l-.772-2.316a1 1 0 0 0 -.948-.684h-8a1 1 0 0 0 -.948.684l-.772 2.316h-6.837l2.25-6zm-6.694 6h-7.226l.334-1h6.558zm-16.613 4v-2h26v2z" fill="#174579"/>
        <path d="m46 40h2v2h-2z" fill="#174579"/>
        <path d="m50 40h2v2h-2z" fill="#174579"/>
        <path d="m42 40h2v2h-2z" fill="#174579"/>
        <path
            d="m38.758 30.97 1.667.417c.071.2.15.387.237.575l-.884 1.473a1 1 0 0 0 .151 1.222l1.414 1.414a1 1 0 0 0 1.221.15l1.474-.884q.282.132.574.238l.418 1.668a1 1 0 0 0 .97.757h2a1 1 0 0 0 .97-.757l.418-1.668q.292-.107.574-.238l1.474.884a1 1 0 0 0 1.221-.15l1.414-1.414a1 1 0 0 0 .151-1.222l-.884-1.473c.087-.188.166-.379.237-.575l1.667-.417a1 1 0 0 0 .758-.97v-2a1 1 0 0 0 -.758-.97l-1.667-.417c-.071-.2-.15-.387-.237-.575l.884-1.473a1 1 0 0 0 -.151-1.222l-1.414-1.414a1 1 0 0 0 -1.221-.15l-1.474.884q-.282-.132-.574-.238l-.418-1.668a1 1 0 0 0 -.97-.757h-2a1 1 0 0 0 -.97.757l-.418 1.668q-.292.106-.574.238l-1.474-.884a1 1 0 0 0 -1.221.15l-1.414 1.414a1 1 0 0 0 -.151 1.222l.884 1.473c-.087.188-.166.379-.237.575l-1.667.417a1 1 0 0 0 -.758.97v2a1 1 0 0 0 .758.97zm1.242-2.189 1.452-.364a1 1 0 0 0 .724-.71 4.983 4.983 0 0 1 .5-1.2 1 1 0 0 0 -.008-1.016l-.77-1.283.31-.309 1.283.769a1 1 0 0 0 1.016.008 5 5 0 0 1 1.2-.5 1 1 0 0 0 .711-.723l.362-1.453h.44l.363 1.453a1 1 0 0 0 .711.723 5 5 0 0 1 1.2.5 1 1 0 0 0 1.016-.008l1.29-.768.31.309-.77 1.283a1 1 0 0 0 -.008 1.016 4.983 4.983 0 0 1 .5 1.2 1 1 0 0 0 .724.71l1.444.363v.438l-1.452.364a1 1 0 0 0 -.724.71 4.983 4.983 0 0 1 -.5 1.2 1 1 0 0 0 .008 1.016l.77 1.283-.31.309-1.283-.769a1 1 0 0 0 -1.016-.008 5 5 0 0 1 -1.2.5 1 1 0 0 0 -.711.723l-.362 1.453h-.44l-.363-1.453a1 1 0 0 0 -.711-.723 5 5 0 0 1 -1.2-.5 1 1 0 0 0 -1.016.008l-1.283.769-.307-.301.77-1.283a1 1 0 0 0 .008-1.016 4.983 4.983 0 0 1 -.5-1.2 1 1 0 0 0 -.724-.71l-1.454-.372z" fill="#174579"/>
        <path d="m47 33a4 4 0 1 0 -4-4 4 4 0 0 0 4 4zm0-6a2 2 0 1 1 -2 2 2 2 0 0 1 2-2z" fill="#174579"/>
    </g>
</svg>