<svg width="40" height="40" viewBox="0 0 40 40" fill="none" xmlns="http://www.w3.org/2000/svg">
<path d="M12.1776 27.8661L12.1546 27.8432C11.8488 27.5389 11.3542 27.54 11.0498 27.8459C10.7454 28.1517 10.7466 28.6463 11.0524 28.9507L11.078 28.9761C11.2303 29.127 11.4291 29.2024 11.6277 29.2024C11.8289 29.2024 12.0301 29.1251 12.1828 28.9709C12.4865 28.6644 12.4842 28.1698 12.1776 27.8661Z" fill="#174579"/>
<path d="M28.9492 11.0509C24.0145 6.11618 15.9851 6.11618 11.0504 11.0509C7.01073 15.0906 6.17815 21.3657 9.02565 26.3109C9.24097 26.6848 9.7187 26.8133 10.0925 26.5981C10.4664 26.3827 10.595 25.9051 10.3797 25.5312C7.88401 21.197 8.61417 15.6969 12.1553 12.1557C16.4807 7.83024 23.5189 7.83024 27.8442 12.1557C32.1697 16.4812 32.1697 23.5192 27.8442 27.8447C24.2816 31.4074 18.7585 32.1241 14.4131 29.5879C14.0403 29.3703 13.562 29.4961 13.3445 29.8688C13.127 30.2415 13.2528 30.7199 13.6254 30.9374C15.6082 32.0947 17.8053 32.6583 19.9888 32.6583C23.2652 32.6583 26.5102 31.3885 28.9492 28.9495C33.8838 24.0149 33.8838 15.9856 28.9492 11.0509Z" fill="#174579"/>
<path d="M39.9973 16.5673C39.9971 16.1832 39.7177 15.8561 39.3383 15.796L36.4545 15.3391L34.9245 11.6495L36.6388 9.28586C36.8644 8.97492 36.8304 8.54609 36.5587 8.27461L31.7133 3.4325C31.4415 3.16094 31.0127 3.12719 30.7019 3.35305L28.3405 5.06844L24.6484 3.5407L24.1895 0.658359C24.129 0.279141 23.802 0 23.4179 0C23.4178 0 23.4177 0 23.4176 0L16.5673 0.0028125C16.1832 0.00296875 15.8562 0.282422 15.796 0.661797L15.3391 3.54562L11.6495 5.07555L9.28594 3.36125C8.97508 3.1357 8.54625 3.16969 8.27469 3.44141L3.43258 8.2868C3.16102 8.55859 3.12734 8.98742 3.35312 9.2982L5.06852 11.6595L3.54078 15.3517L0.658438 15.8106C0.279063 15.871 -0.000156184 16.1983 6.5545e-08 16.5824L0.00281257 23.4326C0.00296882 23.8167 0.282422 24.1438 0.661797 24.2039L3.54562 24.6609L5.07555 28.3505L3.36125 30.7141C3.1357 31.025 3.16969 31.4538 3.44141 31.7253L8.2868 36.5674C8.55859 36.839 8.9875 36.8727 9.2982 36.6469L11.6595 34.9315L15.3517 36.4592L15.8106 39.3416C15.871 39.7209 16.198 40 16.5821 40C16.5822 40 16.5823 40 16.5824 40L23.4326 39.9971C23.8167 39.997 24.1437 39.7175 24.2039 39.3381L24.6609 36.4543L28.3505 34.9244L30.7141 36.6387C31.025 36.8643 31.4538 36.8302 31.7253 36.5585L36.5674 31.7131C36.839 31.4413 36.8727 31.0125 36.6469 30.7017L34.9315 28.3404L36.4592 24.6482L39.3416 24.1893C39.7209 24.1289 40.0002 23.8016 40 23.4175L39.9973 16.5673ZM35.7818 23.1739C35.5134 23.2166 35.2866 23.3956 35.1827 23.6467L33.3206 28.147C33.2167 28.398 33.2508 28.6851 33.4105 28.9049L34.9909 31.0804L31.0916 34.9823L28.9139 33.4028C28.6941 33.2433 28.407 33.2096 28.1559 33.3135L23.6584 35.1785C23.4075 35.2826 23.2286 35.5095 23.1861 35.7779L22.7651 38.4348L17.2489 38.4372L16.8261 35.7817C16.7834 35.5134 16.6044 35.2866 16.3533 35.1827L11.853 33.3205C11.7568 33.2807 11.6553 33.2612 11.5544 33.2612C11.3919 33.2612 11.2307 33.3119 11.0952 33.4104L8.91969 34.9908L5.01781 31.0916L6.59727 28.9138C6.7568 28.6939 6.79055 28.4069 6.68648 28.1559L4.82156 23.6584C4.7175 23.4074 4.49055 23.2285 4.22219 23.186L1.56516 22.765L1.56289 17.2488L4.21836 16.826C4.48672 16.7833 4.71352 16.6043 4.81742 16.3532L6.67953 11.8529C6.78344 11.6019 6.74937 11.3148 6.58969 11.095L5.0093 8.91953L8.90852 5.01766L11.0863 6.59711C11.3063 6.75664 11.5932 6.79055 11.8442 6.68641L16.3417 4.82141C16.5927 4.71734 16.7716 4.49031 16.8141 4.22203L17.235 1.565L22.7513 1.56273L23.1741 4.2182C23.2168 4.48656 23.3958 4.71336 23.6469 4.81727L28.1472 6.67938C28.3982 6.78313 28.6852 6.74922 28.9051 6.58953L31.0805 5.00914L34.9824 8.90836L33.403 11.0861C33.2434 11.306 33.2097 11.593 33.3137 11.8441L35.1787 16.3416C35.2827 16.5925 35.5097 16.7714 35.778 16.8139L38.4351 17.2349L38.4373 22.7511L35.7818 23.1739Z" fill="#174579"/>
<path d="M27.1178 20.9734C26.1407 20.0856 24.8275 19.7001 23.5313 19.9018L20.1003 16.4708C20.3089 15.1117 19.8607 13.7131 18.8783 12.7306C17.6466 11.4989 15.805 11.1217 14.1868 11.7694C13.9429 11.867 13.7645 12.0805 13.7118 12.3377C13.6589 12.5949 13.7389 12.8614 13.9246 13.0471L15.0575 14.1799C15.2972 14.4197 15.2972 14.8099 15.0575 15.0497C14.8177 15.2895 14.4275 15.2895 14.1877 15.0497L13.051 13.9129C12.8657 13.7276 12.6 13.6474 12.3431 13.6997C12.0863 13.7518 11.8727 13.9292 11.7744 14.1721C11.0932 15.8543 11.5389 17.8052 12.8834 19.0266C13.8615 19.9155 15.1757 20.3009 16.4733 20.0978L19.9012 23.5258C19.6912 24.8859 20.1392 26.2859 21.1227 27.2695C21.955 28.1017 23.0639 28.5437 24.1948 28.5437C24.7433 28.5437 25.2972 28.4396 25.8269 28.2256C26.07 28.1275 26.2476 27.9139 26.2999 27.657C26.3521 27.4002 26.2721 27.1342 26.0867 26.9488L24.9591 25.8211C24.7193 25.5813 24.7193 25.1912 24.9591 24.9513C25.1989 24.7115 25.589 24.7115 25.8289 24.9513L26.9542 26.0767C27.1398 26.2623 27.4062 26.3424 27.6634 26.2897C27.9206 26.237 28.134 26.0588 28.2317 25.8152C28.9053 24.1365 28.4577 22.1907 27.1178 20.9734ZM26.9336 23.8466C26.0846 22.9976 24.7031 22.9975 23.8541 23.8466C23.0051 24.6956 23.0051 26.077 23.8541 26.926L23.8922 26.9642C23.2753 26.8966 22.6858 26.623 22.2275 26.1646C21.5266 25.4638 21.2503 24.4324 21.5064 23.4731C21.5784 23.2036 21.5013 22.9163 21.3041 22.7191L17.2797 18.6948C17.1313 18.5463 16.9317 18.4659 16.7272 18.4659C16.6605 18.4659 16.5932 18.4745 16.527 18.492C15.6017 18.7377 14.6324 18.5051 13.9339 17.8704C13.4208 17.4041 13.1118 16.7722 13.0378 16.1097L13.0828 16.1546C13.9318 17.0036 15.3132 17.0037 16.1623 16.1546C17.0113 15.3056 17.0113 13.9241 16.1623 13.0752L16.1253 13.0382C16.7363 13.109 17.3196 13.3817 17.7734 13.8356C18.4735 14.5357 18.75 15.5661 18.495 16.5247C18.4234 16.7939 18.5006 17.0809 18.6976 17.278L22.7243 21.3047C22.921 21.5013 23.2073 21.5787 23.4764 21.5076C24.4007 21.2634 25.3692 21.496 26.067 22.1299C26.5753 22.5918 26.8835 23.2172 26.9608 23.8738L26.9336 23.8466Z" fill="#174579"/>
<path d="M27.1367 14.4211C25.8491 12.7763 24.0238 11.6194 21.9968 11.1633C21.5761 11.0685 21.1579 11.333 21.0632 11.754C20.9685 12.175 21.2329 12.593 21.6539 12.6877C23.3302 13.0649 24.8404 14.0225 25.9064 15.3843C26.0605 15.5812 26.2901 15.684 26.5221 15.684C26.6905 15.684 26.8602 15.6298 27.0031 15.5179C27.3429 15.252 27.4027 14.7609 27.1367 14.4211Z" fill="#174579"/>
<path d="M28.6291 17.238L28.6177 17.2027C28.4851 16.7921 28.0449 16.5669 27.6342 16.6993C27.2236 16.8319 26.9982 17.2722 27.1308 17.6828L27.1407 17.7135C27.2468 18.0454 27.554 18.2572 27.8847 18.2572C27.9635 18.2572 28.0436 18.2452 28.1226 18.22C28.5336 18.0886 28.7604 17.649 28.6291 17.238Z" fill="#174579"/>
</svg>
