<svg width="40" height="40" viewBox="0 0 40 40" fill="none" xmlns="http://www.w3.org/2000/svg">
<g clip-path="url(#clip0_62_12)">
<path d="M26.958 33.334H13.0418C12.5832 33.334 12.2106 33.7066 12.2106 34.1652C12.2106 34.6238 12.5832 34.9965 13.0418 34.9965H26.9723C27.4309 34.9965 27.8035 34.6238 27.8035 34.1652C27.7892 33.7066 27.4166 33.334 26.958 33.334Z" fill="#184478"/>
<path d="M39.1688 5H0.831243C0.372626 5 0 5.37263 0 5.83124V30.8259C0 31.2845 0.372626 31.6571 0.831243 31.6571H39.1688C39.6274 31.6571 40 31.2845 40 30.8259V5.83124C40 5.37263 39.6274 5 39.1688 5ZM38.3375 29.9946H1.66249V6.66249H38.3232V29.9946H38.3375Z" fill="#184478"/>
<path d="M30.0252 19.2458C32.5476 19.2458 34.64 17.354 34.9553 14.9176V14.9033C34.9553 14.889 34.9553 14.8746 34.9553 14.8603C34.984 14.674 34.9983 14.4733 34.9983 14.2727C34.9983 12.3809 33.9378 10.7471 32.3899 9.9015C32.3899 9.9015 32.3756 9.9015 32.3756 9.88716C32.3613 9.88716 32.3613 9.87283 32.3469 9.87283C31.659 9.50021 30.8564 9.29956 30.0252 9.29956C27.2878 9.29956 25.0521 11.5353 25.0521 14.2727C25.0521 17.0101 27.2735 19.2458 30.0252 19.2458ZM32.2753 11.8363C32.8342 12.3522 33.2068 13.0545 33.3072 13.8427L31.3294 13.5991L32.2753 11.8363ZM30.0252 10.962C30.2975 10.962 30.5555 10.9907 30.8134 11.0624L29.2943 13.8857C29.1653 14.1294 29.1653 14.416 29.2943 14.6596C29.4233 14.9033 29.6526 15.0753 29.9249 15.1039L33.1065 15.5052C32.6192 16.7234 31.4297 17.5833 30.0395 17.5833C28.2194 17.5833 26.7289 16.0928 26.7289 14.2727C26.7289 12.4526 28.2051 10.962 30.0252 10.962Z" fill="#184478"/>
<path d="M15.8225 26.6983C16.2812 26.6983 16.6538 26.3257 16.6538 25.8671V15.8635C16.6538 15.4049 16.2812 15.0322 15.8225 15.0322C15.3639 15.0322 14.9913 15.4049 14.9913 15.8635V25.8671C14.977 26.3257 15.3639 26.6983 15.8225 26.6983Z" fill="#184478"/>
<path d="M5.81879 26.6983C6.27741 26.6983 6.65004 26.3257 6.65004 25.8671V22.5278C6.65004 22.0692 6.27741 21.6965 5.81879 21.6965C5.36018 21.6965 4.98755 22.0692 4.98755 22.5278V25.8671C4.98755 26.3257 5.36018 26.6983 5.81879 26.6983Z" fill="#184478"/>
<path d="M25.8258 23.3732H34.1526C34.6112 23.3732 34.9839 23.0005 34.9839 22.5419C34.9839 22.0833 34.6112 21.7107 34.1526 21.7107H25.8258C25.3672 21.7107 24.9946 22.0833 24.9946 22.5419C24.9803 23.0005 25.3529 23.3732 25.8258 23.3732Z" fill="#184478"/>
<path d="M25.8258 26.6981H34.1526C34.6112 26.6981 34.9839 26.3255 34.9839 25.8669C34.9839 25.4083 34.6112 25.0356 34.1526 25.0356H25.8258C25.3672 25.0356 24.9946 25.4083 24.9946 25.8669C24.9803 26.3255 25.3529 26.6981 25.8258 26.6981Z" fill="#184478"/>
<path d="M12.483 26.6983C12.9417 26.6983 13.3143 26.3257 13.3143 25.8671V19.2028C13.3143 18.7442 12.9417 18.3716 12.483 18.3716C12.0244 18.3716 11.6518 18.7442 11.6518 19.2028V25.8671C11.6518 26.3257 12.0244 26.6983 12.483 26.6983Z" fill="#184478"/>
<path d="M19.1473 26.6985C19.6059 26.6985 19.9785 26.3258 19.9785 25.8672V10.8762C19.9785 10.4175 19.6059 10.0449 19.1473 10.0449C18.6887 10.0449 18.316 10.4175 18.316 10.8762V25.8815C18.316 26.3258 18.6887 26.6985 19.1473 26.6985Z" fill="#184478"/>
<path d="M9.14362 26.6985C9.60224 26.6985 9.97486 26.3259 9.97486 25.8672V17.5405C9.97486 17.0819 9.60224 16.7092 9.14362 16.7092C8.685 16.7092 8.31238 17.0819 8.31238 17.5405V25.8672C8.31238 26.3259 8.685 26.6985 9.14362 26.6985Z" fill="#184478"/>
</g>
<defs>
<clipPath id="clip0_62_12">
<rect width="40" height="40" fill="white"/>
</clipPath>
</defs>
</svg>
